<svg width="31" height="24" viewBox="0 0 31 24" fill="none" xmlns="http://www.w3.org/2000/svg">
<path d="M5.28809 10.375C6.94277 10.375 8.28809 8.91758 8.28809 7.125C8.28809 5.33242 6.94277 3.875 5.28809 3.875C3.6334 3.875 2.28809 5.33242 2.28809 7.125C2.28809 8.91758 3.6334 10.375 5.28809 10.375ZM26.2881 10.375C27.9428 10.375 29.2881 8.91758 29.2881 7.125C29.2881 5.33242 27.9428 3.875 26.2881 3.875C24.6334 3.875 23.2881 5.33242 23.2881 7.125C23.2881 8.91758 24.6334 10.375 26.2881 10.375ZM27.7881 12H24.7881C23.9631 12 23.2178 12.3605 22.674 12.9445C24.5631 14.0668 25.9037 16.093 26.1943 18.5H29.2881C30.1178 18.5 30.7881 17.7738 30.7881 16.875V15.25C30.7881 13.4574 29.4428 12 27.7881 12ZM15.7881 12C18.6896 12 21.0381 9.45586 21.0381 6.3125C21.0381 3.16914 18.6896 0.625 15.7881 0.625C12.8865 0.625 10.5381 3.16914 10.5381 6.3125C10.5381 9.45586 12.8865 12 15.7881 12ZM19.3881 13.625H18.999C18.024 14.1328 16.9412 14.4375 15.7881 14.4375C14.635 14.4375 13.5568 14.1328 12.5771 13.625H12.1881C9.20684 13.625 6.78809 16.2453 6.78809 19.475V20.9375C6.78809 22.2832 7.7959 23.375 9.03809 23.375H22.5381C23.7803 23.375 24.7881 22.2832 24.7881 20.9375V19.475C24.7881 16.2453 22.3693 13.625 19.3881 13.625ZM8.90215 12.9445C8.3584 12.3605 7.61309 12 6.78809 12H3.78809C2.1334 12 0.788086 13.4574 0.788086 15.25V16.875C0.788086 17.7738 1.4584 18.5 2.28809 18.5H5.37715C5.67246 16.093 7.01309 14.0668 8.90215 12.9445Z" fill="#0B7077"/>
</svg>
